<svg width="32" height="32" viewBox="0 0 32 32" xmlns="http://www.w3.org/2000/svg"><title>nav/rocket</title><g stroke="#F6F6F6" stroke-width="1.2" stroke-linecap="round" stroke-linejoin="round" fill="none" fill-rule="evenodd"><path d="M16.46 6.41c-3.804-1.637-8.386-.903-11.492 2.204-.638.638-1.163 1.342-1.6 2.083l4.463 4.465M25.556 15.467c1.68 3.818.956 8.438-2.17 11.565-.638.637-1.342 1.163-2.084 1.6l-4.504-4.503"/><path d="M13.255 26.11l-7.367-7.366S12.18 3.09 29.83 2.168C28.835 19.742 13.256 26.11 13.256 26.11z"/><path d="M16.018 12.298c1.017-1.017 2.667-1.017 3.684 0 1.017 1.017 1.017 2.666 0 3.684-1.017 1.017-2.667 1.017-3.684 0-1.017-1.018-1.017-2.667 0-3.684zM3.414 24.902c1.017-1.017 2.667-1.017 3.684 0 1.017 1.018 1.017 2.667 0 3.684-1.017 1.017-4.447.763-4.447.763s-.253-3.43.764-4.448z"/></g></svg>